<?xml version="1.0" encoding="UTF-8" standalone="no"?>
<svg
   xmlns:dc="http://purl.org/dc/elements/1.1/"
   xmlns:cc="http://creativecommons.org/ns#"
   xmlns:rdf="http://www.w3.org/1999/02/22-rdf-syntax-ns#"
   xmlns:svg="http://www.w3.org/2000/svg"
   xmlns="http://www.w3.org/2000/svg"
   xmlns:sodipodi="http://sodipodi.sourceforge.net/DTD/sodipodi-0.dtd"
   xmlns:inkscape="http://www.inkscape.org/namespaces/inkscape"
   width="50px"
   height="50px"
   viewBox="0 0 66 66"
   version="1.1"
   id="svg853"
   sodipodi:docname="wind_rose_grafana.svg"
   inkscape:version="0.92.2 (5c3e80d, 2017-08-06)">
  <metadata
     id="metadata859">
    <rdf:RDF>
      <cc:Work
         rdf:about="">
        <dc:format>image/svg+xml</dc:format>
        <dc:type
           rdf:resource="http://purl.org/dc/dcmitype/StillImage" />
        <dc:title></dc:title>
      </cc:Work>
    </rdf:RDF>
  </metadata>
  <defs
     id="defs857" />
  <sodipodi:namedview
     pagecolor="#ffffff"
     bordercolor="#666666"
     borderopacity="1"
     objecttolerance="10"
     gridtolerance="10"
     guidetolerance="10"
     inkscape:pageopacity="0"
     inkscape:pageshadow="2"
     inkscape:window-width="1920"
     inkscape:window-height="986"
     id="namedview855"
     showgrid="false"
     inkscape:snap-object-midpoints="true"
     inkscape:snap-smooth-nodes="true"
     inkscape:zoom="2.8284271"
     inkscape:cx="-86.624083"
     inkscape:cy="-20.455609"
     inkscape:window-x="-11"
     inkscape:window-y="-11"
     inkscape:window-maximized="1"
     inkscape:current-layer="svg853" />
  <g
     id="g4950"
     transform="translate(92.532667,-172.67548)">
    <rect
       style="opacity:1;fill:#3798ab;fill-opacity:1;stroke:none;stroke-width:0.07263665;stroke-linecap:round;stroke-linejoin:round;stroke-miterlimit:4;stroke-dasharray:none;stroke-dashoffset:0;stroke-opacity:1"
       id="rect4925"
       width="67.540855"
       height="66"
       x="-91.962448"
       y="173.44067"
       ry="2.848464" />
    <path
       style="opacity:1;fill:#ffcc00;fill-opacity:1;stroke:none;stroke-width:0.05772772;stroke-linecap:round;stroke-linejoin:round;stroke-miterlimit:4;stroke-dasharray:none;stroke-dashoffset:0;stroke-opacity:1"
       d="m -58.184583,182.15089 a 24.311319,24.311319 0 0 0 -12.15328,3.22266 24.311319,24.311319 0 0 0 -8.90226,33.20882 24.311319,24.311319 0 0 0 27.348748,11.31797 l -1.577828,-5.8807 a 18.233489,18.233489 0 0 1 -20.50639,-8.47688 18.233489,18.233489 0 0 1 6.67476,-24.90726 18.233489,18.233489 0 0 1 9.11368,-2.42344 z m 4.71797,6.67476 -1.57266,5.86782 a 12.15566,12.15566 0 0 0 -9.22196,1.20656 12.15566,12.15566 0 0 0 -4.44984,16.6057 12.15566,12.15566 0 0 0 16.605708,4.44985 12.15566,12.15566 0 0 0 5.6564,-7.38375 l 5.86266,1.57265 a 18.233487,18.233487 0 0 0 0.38156,-1.75828 18.233489,18.233489 0 0 1 -0.38156,1.75828 18.233489,18.233489 0 0 1 -4.70766,8.17266 l 4.27969,4.27969 a 24.311319,24.311319 0 0 0 3.88523,-29.3236 24.311319,24.311319 0 0 0 -3.88523,-5.01703 l -4.28227,4.28227 a 18.233489,18.233489 0 0 1 0.30422,0.33515 18.233487,18.233487 0 0 0 -8.474288,-5.04797 z m 9.193588,5.83946 a 18.233489,18.233489 0 0 1 0.5079,0.63679 18.233487,18.233487 0 0 0 -0.5079,-0.63679 z m -9.631868,0.39187 a 12.15566,12.15566 0 0 1 0.1418,0.0593 12.15566,12.15566 0 0 0 -0.1418,-0.0593 z m 10.717268,1.02094 a 18.233489,18.233489 0 0 1 0.79663,1.23234 18.233487,18.233487 0 0 0 -0.79663,-1.23234 z m -8.55165,0.049 a 12.15566,12.15566 0 0 1 0.21915,0.14953 12.15566,12.15566 0 0 0 -0.21915,-0.14953 z m 0.98743,0.68836 a 12.15566,12.15566 0 0 1 0.26811,0.2243 12.15566,12.15566 0 0 0 -0.26811,-0.2243 z m 0.9075,0.77601 a 12.15566,12.15566 0 0 1 0.3171,0.32485 12.15566,12.15566 0 0 0 -0.3171,-0.32485 z m 0.84304,0.87915 a 12.15566,12.15566 0 0 1 0.28618,0.35836 12.15566,12.15566 0 0 0 -0.28618,-0.35836 z m 7.37344,0.33257 a 18.233489,18.233489 0 0 1 0.38156,0.93071 18.233487,18.233487 0 0 0 -0.38156,-0.93071 z m -6.63351,0.61102 a 12.15566,12.15566 0 0 1 0.60585,0.93586 12.15566,12.15566 0 0 0 -0.60585,-0.93586 z m -10.064998,0.93844 a 6.0778298,6.0778298 0 0 1 5.406318,3.03445 6.0778298,6.0778298 0 0 1 -2.224928,8.30672 6.0778298,6.0778298 0 0 1 -8.30156,-2.2275 6.0778298,6.0778298 0 0 1 2.22493,-8.30156 6.0778298,6.0778298 0 0 1 2.89524,-0.81211 z m 17.373978,0.13148 a 18.233489,18.233489 0 0 1 0.34031,1.15242 18.233487,18.233487 0 0 0 -0.34031,-1.15242 z m -6.2236,0.80438 a 12.15566,12.15566 0 0 1 0.20367,0.47953 12.15566,12.15566 0 0 0 -0.20367,-0.47953 z m 6.72117,0.9075 a 18.233489,18.233489 0 0 1 0.25267,1.33547 18.233487,18.233487 0 0 0 -0.25267,-1.33547 z m -6.25711,0.23976 a 12.15566,12.15566 0 0 1 0.13922,0.43828 12.15566,12.15566 0 0 0 -0.13922,-0.43828 z m 0.34547,1.17821 a 12.15566,12.15566 0 0 1 0.0825,0.40218 12.15566,12.15566 0 0 0 -0.0825,-0.40218 z m 6.24164,0.36351 a 18.233489,18.233489 0 0 1 0.12633,1.4618 18.233487,18.233487 0 0 0 -0.12633,-1.4618 z m -6.01733,0.8482 a 12.15566,12.15566 0 0 1 0.0361,0.36094 12.15566,12.15566 0 0 0 -0.0361,-0.36094 z m 6.16944,0.95133 a 18.233489,18.233489 0 0 1 -0.0232,1.70414 18.233487,18.233487 0 0 0 0.0232,-1.70414 z m -6.07149,0.26555 a 12.15566,12.15566 0 0 1 0,0.33515 12.15566,12.15566 0 0 0 0,-0.33515 z m -0.0232,1.22203 a 12.15566,12.15566 0 0 1 -0.0309,0.32484 12.15566,12.15566 0 0 0 0.0309,-0.32484 z m 6.07149,0.29648 a 18.233489,18.233489 0 0 1 -0.18821,1.67321 18.233487,18.233487 0 0 0 0.18821,-1.67321 z m -6.2133,0.89204 a 12.15566,12.15566 0 0 1 -0.0825,0.42281 12.15566,12.15566 0 0 0 0.0825,-0.42281 z"
       id="path4927"
       inkscape:connector-curvature="0" />
    <path
       id="path4929"
       d="m -53.466623,188.82593 -1.57214,5.86729 a 12.15566,12.15566 0 0 1 7.383008,5.65665 12.15566,12.15566 0 0 1 1.2073,9.22221 l 5.86378,1.57119 a 18.233488,18.233488 0 0 0 -1.80632,-13.83301 18.233488,18.233488 0 0 0 -11.075628,-8.48433 z"
       style="opacity:1;fill:#ff4a66;fill-opacity:1;stroke:none;stroke-width:0.04329577;stroke-linecap:round;stroke-linejoin:round;stroke-miterlimit:4;stroke-dasharray:none;stroke-dashoffset:0;stroke-opacity:1"
       inkscape:connector-curvature="0" />
  </g>
</svg>
